<?xml version="1.0" encoding="utf-8"?>
<!-- Generator: Adobe Illustrator 17.0.0, SVG Export Plug-In . SVG Version: 6.00 Build 0)  -->
<!DOCTYPE svg PUBLIC "-//W3C//DTD SVG 1.1//EN" "http://www.w3.org/Graphics/SVG/1.1/DTD/svg11.dtd">
<svg version="1.1" id="图层_1" xmlns="http://www.w3.org/2000/svg" xmlns:xlink="http://www.w3.org/1999/xlink" x="0px" y="0px"
	 width="44px" height="44px" viewBox="398.945 275.64 44 44" enable-background="new 398.945 275.64 44 44" xml:space="preserve">
<g>
	<path fill="none" stroke="#FF5A22" stroke-miterlimit="10" d="M440.945,307.188c0,1.657-1.343,3-3,3h-34c-1.657,0-3-1.343-3-3v-20
		c0-1.657,1.343-3,3-3h34c1.657,0,3,1.343,3,3V307.188z"/>
	<g>
		<polygon fill="#FF5A22" points="429.247,296.509 430.597,292.459 429.953,292.244 429.308,292.029 427.363,297.867 
			430.658,297.867 429.308,301.918 430.597,302.347 432.542,296.509 		"/>
		<path fill="#FF5A22" d="M438.453,297.188c0,4.694-3.806,8.5-8.5,8.5s-8.5-3.806-8.5-8.5s3.806-8.5,8.5-8.5
			S438.453,292.494,438.453,297.188z M436.453,297.188c0-3.584-2.916-6.5-6.5-6.5s-6.5,2.916-6.5,6.5s2.916,6.5,6.5,6.5
			S436.453,300.772,436.453,297.188z"/>
	</g>
</g>
</svg>
